# xmcd
#
# Track frame offsets: 
#        150
#        12417
#        25051
#        35415
#        48778
#        63375
#        79343
#        91367
#        101480
#        113434
#        125737
#        140023
#        153455
#        170050
#        180651
#        193992
#        206437
#        220616
#
# Disc length: 3109 seconds
#
# Revision: 0
# Processed by: cddbd v1.5.2PL0 Copyright (c) Steve Scherf et al.
# Submitted via: ExactAudioCopy v1.1
#
DISCID=f80c2312
DTITLE=Various Artist - The Country Outlaws: The Bad Side of Country 
DTITLE=[Disc 3]
DYEAR=1900
DGENRE=Country
TTITLE0=Hank Williams - Cold, Cold Heart
TTITLE1=Johnny Cash - Folsom Prison Blues
TTITLE2=Waylon Jennings - White Lightning
TTITLE3=Billie Jo Spears - Fever
TTITLE4=Don Gibson - I Can't Stop Loving You
TTITLE5=Willie Nelson - Always On My Mind (Live)
TTITLE6=Frankie Laine - High Noon (Do Not Forsake Me)
TTITLE7=Dolly Parton - Release Me
TTITLE8=Gene Autry - Blueberry Hill
TTITLE9=Charlie Rich - Behind Closed Doors
TTITLE10=George Jones - A Good Year For The Roses
TTITLE11=Don Williams - Ruby Tuesday
TTITLE12=Lost Angels - Hot Burrito No. 1
TTITLE13=Patsy Cline - Honky Tonk Merry Go Round
TTITLE14=Glen Houston - Galveston
TTITLE15=Joann Houston - Blue Blue Day
TTITLE16=Freddy Fender - Wasted Days And Wasted Nights
TTITLE17=Kenny Rogers - Reuben James
EXTD=
EXTT0=
EXTT1=
EXTT2=
EXTT3=
EXTT4=
EXTT5=
EXTT6=
EXTT7=
EXTT8=
EXTT9=
EXTT10=
EXTT11=
EXTT12=
EXTT13=
EXTT14=
EXTT15=
EXTT16=
EXTT17=
PLAYORDER=
